<?xml version="1.0" standalone="no"?>
<!DOCTYPE svg PUBLIC "-//W3C//DTD SVG 20010904//EN"
 "http://www.w3.org/TR/2001/REC-SVG-20010904/DTD/svg10.dtd">
<svg version="1.0" xmlns="http://www.w3.org/2000/svg"
 width="700.000000pt" height="700.000000pt" viewBox="0 0 700.000000 700.000000"
 preserveAspectRatio="xMidYMid meet">
<metadata>
Created by potrace 1.14, written by Peter Selinger 2001-2017
</metadata>
<g transform="translate(0.000000,700.000000) scale(0.100000,-0.100000)"
fill="#000000" stroke="none">
<path d="M1166 5803 c-164 -37 -359 -179 -561 -408 -69 -78 -219 -284 -212
-291 2 -2 42 42 89 99 226 272 485 483 653 531 153 45 264 12 395 -116 14 -13
72 -64 130 -113 58 -50 107 -92 110 -96 18 -20 145 -119 227 -177 263 -186
479 -289 789 -376 239 -66 431 -91 714 -91 289 0 445 19 725 88 87 22 262 77
320 102 17 7 68 27 115 45 68 26 334 140 525 226 201 90 549 199 693 218 24 3
46 8 50 10 18 11 136 21 242 21 122 0 195 -7 318 -30 43 -8 91 -17 107 -20 17
-2 39 -7 50 -9 49 -9 125 -17 125 -13 0 9 -152 103 -228 141 -75 38 -211 91
-260 102 -140 31 -288 38 -422 20 -213 -28 -549 -135 -808 -257 -46 -21 -85
-39 -86 -39 -2 0 -78 -36 -168 -79 -91 -44 -194 -91 -229 -106 -35 -15 -82
-35 -105 -46 -246 -111 -551 -193 -854 -228 -72 -9 -463 -7 -525 2 -16 2 -52
7 -80 11 -399 53 -796 229 -1143 507 -84 67 -245 201 -252 210 -13 15 -126
103 -159 123 -78 50 -180 64 -285 39z"/>
<path d="M1631 5401 c-3 -52 180 -723 278 -1016 297 -897 643 -1611 1027
-2120 401 -531 1006 -954 1501 -1049 91 -18 250 -26 313 -16 31 5 26 7 -40 19
-314 57 -745 311 -1104 652 -493 467 -752 832 -1142 1609 -66 131 -214 439
-214 446 0 2 -20 47 -45 100 -25 53 -45 98 -45 100 0 2 -11 27 -24 56 -57 127
-73 164 -158 368 -49 118 -135 330 -190 470 -55 140 -107 270 -115 288 -8 18
-20 50 -28 70 -7 20 -14 31 -14 23z"/>
<path d="M1825 5246 c9 -21 20 -46 25 -55 5 -9 25 -52 45 -96 45 -98 260 -529
302 -605 17 -30 45 -82 63 -115 260 -483 620 -1030 863 -1315 146 -171 327
-355 667 -675 91 -86 318 -272 435 -357 235 -171 536 -337 755 -418 101 -38
293 -98 335 -106 17 -3 57 -11 90 -19 33 -7 80 -16 105 -20 25 -3 52 -8 60
-10 16 -4 94 -15 150 -20 19 -2 89 -6 155 -9 114 -5 114 1 0 18 -140 22 -337
71 -515 128 -332 108 -641 271 -960 507 -56 41 -222 173 -254 201 -32 28 -37
33 -166 150 -125 113 -598 585 -681 680 -138 157 -276 337 -486 630 -78 110
-406 601 -448 672 -9 16 -191 303 -290 458 -23 36 -88 139 -145 230 -114 183
-129 203 -105 146z"/>
<path d="M5985 5134 c-44 -7 -98 -16 -120 -19 -22 -4 -58 -10 -80 -15 -22 -5
-53 -11 -70 -14 -70 -13 -371 -91 -660 -171 -366 -102 -297 -84 -533 -145
-419 -109 -621 -144 -837 -144 -174 0 -305 11 -445 39 -371 74 -690 178 -1127
368 -46 20 -83 34 -83 32 0 -2 75 -41 166 -85 326 -159 656 -279 942 -344 251
-57 353 -70 572 -70 143 -1 265 8 389 29 14 2 46 7 71 10 25 3 79 12 121 20
42 8 98 17 125 21 27 3 52 8 55 10 4 2 24 6 45 10 22 3 161 30 309 60 149 30
279 56 290 58 11 3 61 13 110 25 50 11 101 22 115 25 14 3 124 25 245 50 121
26 247 51 280 56 33 5 69 12 80 14 19 3 56 8 160 22 131 18 354 7 474 -23 57
-14 118 -46 154 -81 l39 -37 -5 31 c-16 106 -134 201 -317 255 -93 27 -339 34
-465 13z"/>
<path d="M2330 4759 c0 -25 244 -296 550 -613 406 -419 697 -698 935 -896 50
-41 92 -77 95 -80 14 -16 239 -186 340 -257 336 -238 676 -399 879 -419 l46
-4 -56 23 c-78 33 -178 89 -284 159 -91 61 -256 178 -265 188 -3 3 -34 28 -70
55 -105 80 -518 415 -630 511 -14 12 -77 65 -140 119 -144 121 -425 361 -465
396 -16 15 -75 66 -130 114 -119 105 -282 252 -310 280 -11 11 -63 58 -115
105 -52 47 -103 94 -115 105 -11 11 -58 54 -105 95 -47 41 -98 87 -115 102
-32 30 -45 35 -45 17z"/>
<path d="M2535 4635 c221 -182 600 -340 895 -372 96 -10 547 -10 710 1 176 12
191 13 320 21 120 7 463 8 540 1 119 -10 402 -56 485 -78 22 -5 50 -12 62 -14
12 -2 71 -20 130 -40 186 -63 308 -133 429 -249 38 -36 70 -65 72 -65 2 0 -16
28 -40 61 -58 84 -149 176 -230 233 -71 50 -234 131 -345 171 -114 41 -373
109 -496 130 -15 3 -38 7 -52 9 -28 5 -179 23 -275 33 -36 3 -337 7 -670 8
-543 2 -662 5 -741 20 -13 3 -41 7 -64 11 -22 3 -87 15 -145 26 -58 11 -116
22 -130 24 -14 3 -41 9 -60 14 -19 5 -51 12 -70 15 -19 3 -42 8 -50 10 -8 2
-31 7 -50 10 -19 3 -42 8 -50 10 -8 2 -28 7 -45 9 -16 3 -54 10 -84 16 -75 14
-80 13 -46 -15z"/>
</g>
</svg>
