<?xml version="1.0" encoding="utf-8"?>
<!-- Generator: Adobe Illustrator 25.2.0, SVG Export Plug-In . SVG Version: 6.00 Build 0)  -->
<svg version="1.1" xmlns="http://www.w3.org/2000/svg" xmlns:xlink="http://www.w3.org/1999/xlink" x="0px" y="0px"
	 viewBox="0 0 500 200" style="enable-background:new 0 0 500 200;" xml:space="preserve">
<style type="text/css">
	.st0{fill:#3E0024;}
	.st1{fill:none;stroke:#3E0024;stroke-width:3;stroke-miterlimit:10;}
	.st2{fill:none;stroke:#3E0024;stroke-width:2;stroke-miterlimit:10;}
</style>
<g id="Layer_1">
	<g>
		<path class="st0" d="M159.6,48.6l-25.3,125.6h-22.1L96.6,86.7h-0.4l-15.5,87.5H56.8L32.1,48.6h27.7l5,25.1l5.7,55.6h0.4l14.4-80.8
			h22.4l14.8,84.2h0.4l5.4-54.7c0.9-9,2.7-18.8,5.3-29.5H159.6z"/>
		<path class="st0" d="M233.3,136.3h-43.5c0.4,9.3,1.4,15.4,3.1,18.3c1.6,2.9,4.5,4.3,8.7,4.3c5.3,0,8.2-3.4,8.7-10.3h21.6
			c-0.9,9.1-4.1,16-9.6,20.8s-12.9,7.2-22.1,7.2c-11.7,0-20.7-3.9-26.8-11.8c-6.1-7.9-9.2-19.4-9.2-34.6c0-13.5,3.4-24.3,10.2-32.6
			c6.8-8.2,15.6-12.4,26.6-12.4c7.8,0,14.3,2.3,19.5,6.8c5.2,4.5,8.6,10.2,10.3,16.9C232.4,115.9,233.3,125,233.3,136.3z
			 M210.2,122.1c-0.1-7.3-0.8-12.7-2.2-16.2c-1.4-3.5-3.8-5.2-7.2-5.2c-4,0-6.8,1.7-8.4,5.2c-1.6,3.5-2.5,8.9-2.6,16.2H210.2z"/>
		<path class="st0" d="M317.3,174.2h-24.5V160h-0.4c-4.5,11.1-11.3,16.7-20.6,16.7c-6.4,0-12.1-3.3-17.2-9.8c-5-6.5-7.5-18.5-7.5-36
			c0-14.7,2.3-25.9,6.8-33.7c4.5-7.8,11-11.7,19.3-11.7c9,0,15.4,5.8,19.2,17.5h0.4V39.9h24.5V174.2z M282,107.2
			c-6.4,0-9.6,8-9.6,24.1c0,15.5,3.4,23.2,10.2,23.2c3.6,0,6.2-1.8,7.8-5.4s2.4-9.5,2.4-17.6c0-16.2-3.5-24.3-10.5-24.3H282z"/>
		<path class="st0" d="M405.2,174.2h-24.5V160h-0.4c-4.5,11.1-11.3,16.7-20.6,16.7c-6.4,0-12.1-3.3-17.2-9.8c-5-6.5-7.5-18.5-7.5-36
			c0-14.7,2.3-25.9,6.8-33.7c4.5-7.8,11-11.7,19.3-11.7c9,0,15.4,5.8,19.2,17.5h0.4V39.9h24.5V174.2z M369.9,107.2
			c-6.4,0-9.6,8-9.6,24.1c0,15.5,3.4,23.2,10.2,23.2c3.6,0,6.2-1.8,7.8-5.4s2.4-9.5,2.4-17.6c0-16.2-3.5-24.3-10.5-24.3H369.9z"/>
		<path class="st0" d="M427.4,87.9H452v86.3h-24.5V87.9z"/>
	</g>
</g>
<g id="Layer_2">
	<polygon class="st1" points="451,63.7 447.6,57.5 431.4,57.5 428,63.7 439.5,77.5 	"/>
	<polygon class="st2" points="439.5,75.5 433.5,57.5 445.5,57.5 	"/>
</g>
</svg>
