<svg xmlns="http://www.w3.org/2000/svg" width="250.33" height="250.33" viewBox="0 0 250.33 250.33"><path d="M89.83,83.65c5.88.94,11.46,2.2,17,3.33,2.76.57,5.51,1.13,8.22,1.6,1.37.26,2.71.45,4.06.67s2.68.39,4,.47c5.33.42,11,.25,16.7.17s11.48-.21,17.29-.11,11.68.35,17.55,1c2.94.35,5.88.76,8.8,1.38l2.19.47,2.12.53c1.41.34,2.82.73,4.23,1.1a71.2,71.2,0,0,1,16.46,6.41,33.6,33.6,0,0,1,7.09,5.37,36.83,36.83,0,0,1,5.41,6.89l-.19.14a42.2,42.2,0,0,0-6.31-5.75,36.57,36.57,0,0,0-7.29-4.09A80.3,80.3,0,0,0,191,98.79c-1.4-.26-2.79-.52-4.21-.74l-2.1-.35-2.07-.26c-2.74-.37-5.54-.52-8.34-.62-5.61-.19-11.27.08-17,.41l-8.56.54q-4.31.28-8.65.45c-2.9.14-5.83.15-8.78.14a81.75,81.75,0,0,1-9-.56A54.29,54.29,0,0,1,113.33,96a67,67,0,0,1-8.39-3,70.48,70.48,0,0,1-7.89-4,51.73,51.73,0,0,1-7.29-5.08Z" fill="#b6b8c8"/><path d="M13.9,67.7a93.12,93.12,0,0,1,9.73-12.52,71.45,71.45,0,0,1,5.75-5.52A39.92,39.92,0,0,1,36,45a21.13,21.13,0,0,1,7.81-2.63A12.7,12.7,0,0,1,52,44.23a31.65,31.65,0,0,1,3.29,2.46l3,2.56c2,1.71,4,3.42,6,5.06A120.24,120.24,0,0,0,77,63.46a71.5,71.5,0,0,0,13.9,6.71A81.05,81.05,0,0,0,105.84,74a90,90,0,0,0,15.36,1.15,88.84,88.84,0,0,0,15.27-1.46,98,98,0,0,0,14.78-3.88c4.84-1.63,9.54-3.69,14.26-5.82s9.4-4.51,14.25-6.71a140.73,140.73,0,0,1,15-6c2.6-.84,5.24-1.62,7.92-2.23a67.93,67.93,0,0,1,8.13-1.48,38,38,0,0,1,4.13-.27l2.17,0c.77,0,1.52.06,2.26.14a36.84,36.84,0,0,1,8.3,1.94,52.93,52.93,0,0,1,7.49,3.32A45.92,45.92,0,0,1,242,57l-.19.39c-5.29-1-10.42-2-15.44-2.66a49.72,49.72,0,0,0-7.29-.44c-.57,0-1.14.07-1.68.12a17.8,17.8,0,0,0-1.76.29c-.62.12-1.24.2-1.86.3s-1.23.24-1.85.33a88.53,88.53,0,0,0-14.62,3.56q-7.19,2.45-14.31,5.61c-9.5,4.17-19.28,8.76-29.75,11.69A101.32,101.32,0,0,1,121.12,80a96.62,96.62,0,0,1-31.45-6.6A84.66,84.66,0,0,1,75.41,66a123.9,123.9,0,0,1-12.73-9.63c-2-1.71-4-3.48-6-5.23l-2.94-2.59a29.6,29.6,0,0,0-3-2.34A10.51,10.51,0,0,0,44,44.51a19.26,19.26,0,0,0-7.09,2.25,54.05,54.05,0,0,0-12.26,9.41C22.77,58,21,59.9,19.25,61.87s-3.42,4-5,6.08Z" fill="#b6b8c8"/><path d="M72.68,69a197.36,197.36,0,0,0,20.46,8.38,166,166,0,0,0,21.25,5.86,81.9,81.9,0,0,0,21.77,1.63A96.56,96.56,0,0,0,147,83.21c3.61-.7,7.19-1.52,10.77-2.4,14.3-3.51,28.33-8.1,42.85-11.5,3.63-.81,7.28-1.65,11-2.22a66.71,66.71,0,0,1,11.52-1,23.05,23.05,0,0,1,3,.24c1,.11,1.93.3,2.89.49a28.84,28.84,0,0,1,5.68,1.81,16.3,16.3,0,0,1,5.07,3.45,8.84,8.84,0,0,1,1.76,2.57,5,5,0,0,1,.45,3,7.36,7.36,0,0,0-3.78-3.44,20.5,20.5,0,0,0-4.83-1.42,47.91,47.91,0,0,0-5.13-.6c-.86-.07-1.74-.09-2.61-.14s-1.66,0-2.53,0a76.14,76.14,0,0,0-10.52,1.11c-3.55.62-7.15,1.27-10.73,2-14.34,3-28.82,6.28-43.43,8.92q-5.49,1-11,1.83c-3.68.53-7.36,1-11.14,1.24A88.81,88.81,0,0,1,114,85,142.73,142.73,0,0,1,92.72,78.5a167.08,167.08,0,0,1-20.16-9.29Z" fill="#8588a3"/><path d="M83.72,79.64c4.11,3.64,8.16,7.33,12.2,11s8,7.41,12.11,11.06c8.12,7.33,16.49,14.37,24.79,21.42s16.65,14,25.16,20.73c4.27,3.33,8.58,6.6,13,9.67s9,5.92,14.23,7.8l-2.07-.19c-.35,0-.7,0-1-.12l-1-.22-2.05-.45c-.68-.2-1.34-.42-2-.63a41.32,41.32,0,0,1-3.95-1.44c-1.32-.51-2.56-1.12-3.83-1.7a116.91,116.91,0,0,1-14.44-8.37c-4.61-3.08-9-6.41-13.34-9.86l-3.22-2.6-3.16-2.67c-2.11-1.78-4.17-3.6-6.21-5.46-8.18-7.38-15.89-15.23-23.57-23.09S90.08,88.73,83.14,80.19Z" fill="#8588a3"/><path d="M64.34,60.49c9.51,15.23,19,30.41,28.85,45.27,5,7.39,10,14.74,15.37,21.8l4.08,5.23c1.37,1.73,2.82,3.37,4.22,5.07l1.06,1.26,1.11,1.19,2.24,2.38c1.44,1.59,3.1,3.18,4.65,4.77,3.15,3.18,6.3,6.34,9.48,9.44s6.44,6.11,9.71,9.08a160.51,160.51,0,0,0,20.94,16.07,114.28,114.28,0,0,0,23.73,11.49,132.1,132.1,0,0,0,26,6A106,106,0,0,1,189,196.25,103.92,103.92,0,0,1,163.72,186a142.38,142.38,0,0,1-22.26-15.78c-7-5.83-13.36-12.22-19.75-18.51l-2.38-2.36-1.2-1.19L117,146.85l-2.35-2.53-1.17-1.27-1.1-1.32c-1.44-1.76-3-3.49-4.32-5.3L103.93,131c-2.61-3.7-5.19-7.41-7.63-11.2L94.45,117l-1.8-2.86c-1.19-1.91-2.39-3.82-3.52-5.77l-3.42-5.81-3.34-5.87c-2.16-3.94-4.3-7.89-6.38-11.87C71.89,76.78,67.88,68.75,64.34,60.49Z" fill="#b6b8c8"/><path d="M58,55.74c6,15.59,12.13,31,18.83,46.17q5,11.39,10.48,22.47c3.65,7.4,7.52,14.66,11.69,21.71,2,3.54,4.25,7,6.51,10.36,1.13,1.69,2.3,3.34,3.47,5s2.38,3.27,3.68,4.8a109.59,109.59,0,0,0,8,9c1.4,1.47,2.76,3,4.26,4.35s2.89,2.85,4.38,4.22a124.48,124.48,0,0,0,19.21,14.74c6.94,4,14.36,7.79,22.72,8.58a16.5,16.5,0,0,1-3.14.44,28.27,28.27,0,0,1-3.19,0c-1.07-.06-2.13-.16-3.2-.26s-2.12-.33-3.18-.5A64.17,64.17,0,0,1,146.24,203a94.05,94.05,0,0,1-21.76-13.59c-3.24-2.78-6.5-5.56-9.45-8.62l-2.25-2.27-1.12-1.14-1.08-1.21-2.16-2.43-2-2.51a158.75,158.75,0,0,1-14.06-21.31c-4.14-7.38-7.86-14.95-11.24-22.64s-6.42-15.51-9.29-23.37S66.39,88.07,64.09,80q-1.76-6-3.29-12.09C59.76,63.9,58.81,59.83,58,55.74Z" fill="#8588a3"/></svg>