<svg xmlns="http://www.w3.org/2000/svg" viewBox="0 0 414 133"><defs><style>.cls-1{font-size:17px;fill:#f0bdb7;font-family:Montserrat-SemiBold, Montserrat;font-weight:600;letter-spacing:0.01em;}.cls-2{letter-spacing:0.06em;}.cls-3{letter-spacing:-0.02em;}.cls-4{letter-spacing:0.01em;}.cls-5{letter-spacing:0.01em;}.cls-6{letter-spacing:0em;}.cls-7{letter-spacing:0.01em;}.cls-8{letter-spacing:0em;}.cls-9{letter-spacing:0em;}.cls-10{letter-spacing:0.02em;}.cls-11{letter-spacing:-0.06em;}.cls-12{letter-spacing:-0.1em;}.cls-13{letter-spacing:0.06em;}.cls-14{letter-spacing:0.05em;}.cls-15{letter-spacing:0.05em;}.cls-16{letter-spacing:-0.01em;}.cls-17{letter-spacing:-0.06em;}.cls-18{font-size:72px;font-family:BellMTBold, Bell MT;}.cls-18,.cls-20{fill:#8588a3;}.cls-19{fill:#b6b8c8;}</style></defs><g id="Layer_1" data-name="Layer 1"><text class="cls-1" transform="translate(0.33 104.39)">H<tspan class="cls-2" x="14" y="0">Ä</tspan><tspan class="cls-3" x="27.8" y="0">Ä</tspan><tspan class="cls-4" x="40.16" y="0">U</tspan><tspan class="cls-5" x="53.68" y="0">N</tspan><tspan class="cls-6" x="67.55" y="0">E</tspan><tspan class="cls-7" x="78.99" y="0">L</tspan><tspan class="cls-8" x="89.29" y="0">MI</tspan><tspan class="cls-9" x="111.11" y="0">E</tspan><tspan class="cls-5" x="122.56" y="0">NN</tspan><tspan class="cls-10" x="150.29" y="0">E </tspan><tspan class="cls-11" x="166.92" y="0">T</tspan><tspan class="cls-12" x="176.17" y="0">Ä</tspan><tspan class="cls-13" x="187.12" y="0">Y</tspan><tspan class="cls-14" x="199.39" y="0">T</tspan><tspan class="cls-11" x="210.55" y="0">T</tspan><tspan class="cls-15" x="219.8" y="0">Ä</tspan><tspan class="cls-16" x="233.41" y="0">J</tspan><tspan class="cls-17" x="242.12" y="0">Ä</tspan><tspan class="cls-10" x="253.86" y="0">T</tspan></text><text class="cls-18" transform="translate(1.38 76.74)">WEDDI</text></g><g id="Layer_2" data-name="Layer 2"><path class="cls-19" d="M233.56,21.7a79.52,79.52,0,0,1,7.69-9.95A42.23,42.23,0,0,1,251,3.49a17.64,17.64,0,0,1,6.4-2.27,10.07,10.07,0,0,1,3.62.21A10,10,0,0,1,264.36,3a45.14,45.14,0,0,1,4.8,4.29c1.48,1.46,3,2.88,4.5,4.28a69.21,69.21,0,0,0,9.86,7.38,54.11,54.11,0,0,0,11,5.35,64.5,64.5,0,0,0,11.86,3,72.12,72.12,0,0,0,12.18.94,82.63,82.63,0,0,0,24-3.88c7.83-2.4,15.37-5.73,23-9,3.81-1.66,7.67-3.27,11.56-4.86a116.21,116.21,0,0,1,12-4.44,48.13,48.13,0,0,1,6.32-1.41c1.07-.15,2.15-.28,3.24-.36a32.87,32.87,0,0,1,3.34-.1,17.14,17.14,0,0,1,6.73,1.57A12.38,12.38,0,0,1,414,10a46.67,46.67,0,0,0-6.18-.52,42.94,42.94,0,0,0-5.62.27c-.88.1-1.89.25-2.87.39s-1.95.31-2.93.46c-2,.34-3.92.66-5.88,1.07a99.43,99.43,0,0,0-11.79,3c-3.89,1.28-7.71,2.86-11.56,4.39a237.1,237.1,0,0,1-23.58,8.59,82.24,82.24,0,0,1-25,3.42A74.78,74.78,0,0,1,306,29.67a71.12,71.12,0,0,1-12.14-3.51,65.79,65.79,0,0,1-11.26-5.71c-3.56-2.24-6.86-4.84-10.19-7.37-1.67-1.25-3.3-2.56-4.94-3.84L265,7.35a26.65,26.65,0,0,0-2.38-1.7,8.72,8.72,0,0,0-4.91-1.21,13.66,13.66,0,0,0-5.38,1.5,40,40,0,0,0-9.69,7.15,78.71,78.71,0,0,0-8.18,9.21Z"/><path class="cls-20" d="M280.06,22.88a149.86,149.86,0,0,0,32.82,11,62.76,62.76,0,0,0,17,1.23,74.32,74.32,0,0,0,8.46-1.35c2.82-.57,5.63-1.25,8.42-2,11.2-2.88,22.17-6.67,33.59-9.4,2.86-.68,5.75-1.3,8.71-1.77,1.48-.24,3-.46,4.5-.59a36.1,36.1,0,0,1,4.69-.2,17.55,17.55,0,0,1,2.43.23c.78.12,1.54.25,2.31.44a20.82,20.82,0,0,1,4.54,1.6,12.47,12.47,0,0,1,4,3,7.42,7.42,0,0,1,1.32,2.21,3.93,3.93,0,0,1,.19,2.43,5.9,5.9,0,0,0-3.19-2.4,17.14,17.14,0,0,0-3.77-.83c-1.28-.18-2.62-.24-3.95-.31-.66-.05-1.35,0-2-.05s-1.26,0-1.92,0a66,66,0,0,0-8.13.9c-2.77.46-5.57,1-8.38,1.57-11.26,2.3-22.7,4.69-34.22,6.65a170,170,0,0,1-17.48,2.27,71.23,71.23,0,0,1-17.57-1.75,109.27,109.27,0,0,1-16.75-5.17,125.08,125.08,0,0,1-15.8-7.44Z"/><path class="cls-20" d="M288.59,31.42c6.14,6,12.31,12,18.59,17.9s12.69,11.62,19.18,17.24,13.11,11.11,20,16.26c3.44,2.55,6.93,5,10.57,7.29A44.79,44.79,0,0,0,368.5,95.5a22.94,22.94,0,0,1-3.17-.68l-1.56-.46-1.51-.58a31.69,31.69,0,0,1-3-1.29c-1-.44-1.94-1-2.9-1.48a107.74,107.74,0,0,1-11-6.87,242.39,242.39,0,0,1-20.19-16.22c-6.45-5.72-12.68-11.68-18.81-17.74q-4.61-4.53-9.1-9.18c-3-3.1-6-6.2-8.85-9.42Z"/><path class="cls-19" d="M273.5,16.23c7.34,12,14.71,24,22.43,35.73,3.9,5.83,7.84,11.62,12,17.19l3.2,4.13c1.07,1.37,2.22,2.66,3.32,4,2.26,2.62,4.64,5,7.15,7.56,9.89,10,19.88,19.79,31.65,27.17A88.88,88.88,0,0,0,372,121a101,101,0,0,0,20.47,4.55,84.21,84.21,0,0,1-21-2.74,82.22,82.22,0,0,1-19.75-8.15,112.73,112.73,0,0,1-17.41-12.42c-5.45-4.59-10.47-9.6-15.49-14.55-2.49-2.42-5-5.07-7.33-7.8-1.13-1.38-2.31-2.73-3.39-4.15l-3.23-4.25q-6.19-8.67-11.66-17.76l-2.71-4.56-2.64-4.59c-1.71-3.08-3.41-6.18-5.06-9.3C279.54,29,276.36,22.69,273.5,16.23Z"/><path class="cls-20" d="M268.5,12.5c4.64,12.26,9.48,24.39,14.75,36.3,2.63,6,5.33,11.87,8.26,17.65l2.16,4.36L296,75.08c1.47,2.88,3.16,5.62,4.77,8.41l1.21,2.09,1.3,2,2.59,4.05c.87,1.34,1.86,2.58,2.79,3.88l1.4,1.92.71,1,.77.9q1.54,1.77,3.05,3.59l.76.9.83.86,1.67,1.72c1.1,1.15,2.18,2.34,3.36,3.4s2.29,2.23,3.46,3.3a95.73,95.73,0,0,0,15.13,11.44c1.38.75,2.73,1.61,4.17,2.25s2.86,1.35,4.32,2a32.68,32.68,0,0,0,9.18,2.27l.14,1a14.28,14.28,0,0,1-2.57.3,21.69,21.69,0,0,1-2.55,0c-.84-.06-1.68-.15-2.53-.24s-1.68-.28-2.51-.43a51.37,51.37,0,0,1-9.67-3.17c-1.53-.71-3.07-1.44-4.55-2.25s-2.94-1.68-4.36-2.6-2.82-1.85-4.17-2.86l-4-3.11c-2.53-2.2-5.08-4.39-7.39-6.81a87.1,87.1,0,0,1-6.74-7.56l-.81-1-.73-1-1.46-2.06c-1-1.38-2-2.72-2.86-4.14l-2.63-4.25-1.32-2.13-1.21-2.18c-1.59-2.92-3.19-5.83-4.59-8.83l-2.17-4.46-2-4.52c-1.38-3-2.57-6.07-3.8-9.13-.63-1.52-1.22-3.06-1.79-4.6l-1.72-4.63c-2.16-6.21-4.28-12.43-6.06-18.76S269.86,18.92,268.5,12.5Z"/><path class="cls-19" d="M293.52,34.47c4.39,1.25,8.7,2.53,13,3.64,2.15.57,4.33,1.07,6.49,1.52a58.26,58.26,0,0,0,6.49,1,125.37,125.37,0,0,0,13.32.18c4.49-.11,9-.24,13.57-.24s9.12.1,13.69.54c2.28.23,4.56.5,6.83.94s4.45,1,6.68,1.53a56.12,56.12,0,0,1,12.89,4.69,27,27,0,0,1,5.61,4,29.55,29.55,0,0,1,4.41,5.21l-.08.06A28.93,28.93,0,0,0,386,49.36a61.5,61.5,0,0,0-12.79-3.84c-2.19-.43-4.43-.89-6.61-1.19s-4.42-.49-6.64-.62c-4.45-.22-8.94-.12-13.43.07s-9,.47-13.54.62a95.16,95.16,0,0,1-13.79-.28,47,47,0,0,1-6.86-1.33,63.74,63.74,0,0,1-6.57-2.13,66.86,66.86,0,0,1-12.26-6.13Z"/></g></svg>